P2
38 63
255
255 255 255 255 255 255 255 255 255 255 255 255 255 255 255 255 255 255 255 255 255 255 255 255 255 255 255 255 255 255 255 255 255 255 255 255 58 58 
255 255 255 255 255 255 255 255 255 255 255 255 255 255 255 255 255 255 255 255 255 255 255 255 255 255 255 255 255 255 255 255 255 255 255 255 255 255 
255 255 255 255 255 255 255 255 255 255 255 255 255 255 255 255 255 255 255 255 255 255 255 255 255 255 255 255 255 255 255 255 255 255 255 255 255 255 
255 255 255 255 255 255 255 255 255 255 255 255 255 255 255 255 255 255 255 255 255 255 255 255 255 255 255 255 255 255 255 255 255 255 255 255 255 255 
255 255 255 255 255 255 255 255 255 255 255 255 255 255 255 255 255 255 255 255 255 255 255 255 255 255 255 255 255 255 255 255 255 255 255 255 255 255 
255 255 255 255 255 255 255 255 255 255 255 255 255 255 255 255 140 140 140 140 140 255 255 255 255 255 255 255 255 255 255 255 255 255 255 255 255 255 
255 255 255 255 255 255 255 255 255 255 255 255 255 255 140 140 250 205 250 205 250 140 140 255 255 255 255 255 255 255 255 255 255 255 255 255 255 255 
255 255 255 255 255 255 255 255 255 255 255 255 255 91 205 205 250 250 250 250 250 205 205 91 255 255 255 255 255 255 255 255 255 255 255 255 255 255 
255 255 255 255 255 255 255 255 255 255 255 255 91 205 205 250 250 250 250 250 250 250 205 205 91 255 255 255 255 255 255 255 255 255 255 255 255 255 
255 255 255 255 255 255 255 255 255 255 255 91 205 205 250 250 250 250 250 250 250 250 250 205 205 91 255 255 255 255 255 255 255 255 255 255 255 255 
255 255 255 255 255 255 255 255 255 255 255 91 205 250 250 250 250 250 250 250 250 250 250 250 205 91 255 255 255 255 255 255 255 255 255 255 255 255 
255 255 255 255 255 255 255 255 255 255 41 140 205 250 250 250 250 250 250 250 250 250 250 250 205 140 41 255 255 255 255 255 255 255 255 255 255 255 
255 255 255 255 255 255 255 255 255 255 41 140 205 205 250 250 250 250 250 250 250 250 250 205 205 140 41 255 255 255 255 255 255 255 255 255 255 255 
255 255 255 255 255 255 255 43 43 255 41 140 140 205 205 250 250 250 250 250 250 250 205 205 140 140 41 255 43 43 255 255 255 255 255 255 255 255 
255 255 255 255 255 255 255 255 43 43 43 140 205 205 205 250 250 250 250 250 250 250 205 205 205 140 43 43 43 255 255 255 255 255 255 255 255 255 
255 255 255 255 255 255 255 255 43 140 43 43 140 205 250 250 250 250 250 250 250 250 250 205 140 43 43 140 43 255 255 255 255 255 255 255 255 255 
255 255 255 255 255 255 255 255 43 140 140 43 43 205 250 250 250 250 250 250 250 250 250 205 43 43 140 140 43 255 255 255 255 255 255 255 255 255 
255 255 255 255 255 255 255 255 255 43 140 43 43 205 250 250 250 205 205 205 250 250 250 205 43 43 140 43 255 255 255 255 255 255 255 255 255 255 
255 255 255 255 255 255 255 255 255 255 43 43 43 140 205 250 205 205 205 205 205 250 205 140 43 43 43 255 255 255 255 255 255 255 255 255 255 255 
255 255 255 255 255 255 255 255 255 255 255 255 43 43 205 205 205 140 140 140 205 205 205 43 43 255 255 255 255 255 255 255 255 255 255 255 255 255 
255 255 255 255 255 255 255 255 255 255 255 255 43 43 140 205 140 140 140 140 140 205 140 43 43 255 255 255 255 255 255 255 255 255 255 255 255 255 
255 255 255 255 255 255 255 255 255 255 255 255 255 43 43 140 205 140 43 140 205 140 43 43 255 255 255 255 255 255 255 255 255 255 255 255 255 255 
255 255 255 255 255 255 255 255 255 255 255 255 255 255 43 43 43 140 140 140 43 43 43 255 255 255 255 255 255 255 255 255 255 255 255 255 255 255 
255 255 255 255 255 255 255 255 255 255 255 255 255 255 91 41 41 250 205 250 41 41 91 255 255 255 255 255 255 255 255 255 255 255 255 255 255 255 
255 255 255 255 255 255 255 255 255 255 255 255 255 91 91 250 250 205 205 205 250 250 91 91 255 255 255 255 255 255 255 255 255 255 255 255 255 255 
255 255 255 255 255 255 255 255 255 255 255 91 91 250 250 250 250 250 205 250 250 250 250 250 91 91 255 255 255 255 255 255 255 255 255 255 255 255 
255 255 255 255 255 255 255 255 255 255 91 205 250 250 250 250 250 250 205 250 250 250 250 250 250 205 91 255 255 255 255 255 255 255 255 255 255 255 
255 255 255 255 255 255 255 255 255 255 91 250 250 140 205 250 250 205 205 205 250 250 205 140 250 250 91 255 255 255 255 255 255 255 255 255 255 255 
255 255 255 255 255 255 255 255 255 91 140 250 250 43 43 250 43 250 250 250 43 250 43 43 250 250 140 91 255 255 255 255 255 255 255 255 255 255 
255 255 255 255 255 255 255 255 255 91 205 250 140 43 43 43 205 250 205 250 205 43 43 43 140 250 205 91 255 255 255 255 255 255 255 255 255 255 
255 255 255 255 255 255 255 255 255 91 250 250 140 43 43 205 205 250 205 250 205 205 43 43 140 250 250 91 255 255 255 255 255 255 255 255 255 255 
255 255 255 255 255 255 255 255 91 140 250 250 43 255 43 43 250 250 250 250 250 43 43 255 43 250 250 140 91 255 255 255 255 255 255 255 255 255 
255 255 255 255 255 255 255 255 91 205 250 205 43 255 43 205 250 205 205 205 250 205 43 255 43 205 250 205 91 255 255 255 255 255 255 255 255 255 
255 255 255 255 255 255 255 255 91 250 250 140 43 255 43 140 205 250 250 250 205 140 43 255 43 140 250 250 91 255 255 255 255 255 255 255 255 255 
255 255 255 255 255 255 255 91 140 250 250 43 43 255 0 140 205 250 205 250 205 140 0 255 43 43 250 250 140 91 255 255 255 255 255 255 255 255 
255 255 255 255 255 255 255 91 205 250 250 43 43 255 0 43 205 205 205 205 205 43 0 255 43 43 250 250 205 91 255 255 255 255 255 255 255 255 
255 255 255 255 255 255 140 205 250 250 205 43 43 0 0 0 43 140 140 140 43 0 0 0 43 43 205 250 250 205 140 255 255 255 255 255 255 255 
255 255 255 255 255 255 140 205 250 205 140 43 91 0 58 122 0 0 0 0 0 122 58 0 91 43 140 205 250 205 140 255 255 255 255 255 255 255 
255 255 255 255 255 255 140 250 205 205 91 91 0 58 122 122 122 122 122 122 122 122 122 58 0 91 91 205 205 250 140 255 255 255 255 255 255 255 
255 255 255 255 255 255 91 205 250 43 43 43 0 122 122 122 122 122 122 122 122 122 122 122 0 43 43 43 250 140 91 255 255 255 255 255 255 255 
255 255 255 255 255 255 91 91 140 205 43 43 0 122 122 122 122 122 122 122 122 122 122 122 0 43 43 205 140 91 91 255 255 255 255 255 255 255 
255 255 255 255 255 255 255 91 91 43 140 43 0 122 0 0 0 58 0 58 0 0 0 122 0 43 140 43 91 91 255 255 255 255 255 255 255 255 
255 255 255 255 255 255 255 255 91 43 43 0 58 122 122 122 122 122 0 122 122 122 122 122 58 58 43 43 91 255 255 255 255 255 255 255 255 255 
255 255 255 255 255 255 255 255 255 255 255 58 122 122 122 122 122 58 0 58 122 122 122 122 122 58 255 255 255 255 255 255 255 255 255 255 255 255 
255 255 255 255 255 255 255 255 255 255 255 122 122 122 122 122 122 58 0 58 122 122 122 122 122 122 255 255 255 255 255 255 255 255 255 255 255 255 
255 255 255 255 255 255 255 255 255 255 255 122 122 122 122 122 122 0 255 0 122 122 122 122 122 122 255 255 255 255 255 255 255 255 255 255 255 255 
255 255 255 255 255 255 255 255 255 255 255 58 122 122 122 58 58 0 255 0 58 58 122 122 122 58 255 255 255 255 255 255 255 255 255 255 255 255 
255 255 255 255 255 255 255 255 255 255 58 122 122 122 122 122 122 0 255 0 122 122 122 122 122 122 58 255 255 255 255 255 255 255 255 255 255 255 
255 255 255 255 255 255 255 255 255 255 58 122 122 122 122 122 122 0 255 0 122 122 122 122 122 122 58 255 255 255 255 255 255 255 255 255 255 255 
255 255 255 255 255 255 255 255 255 0 58 122 122 122 122 122 122 0 255 0 122 122 122 122 122 122 58 0 255 255 255 255 255 255 255 255 255 255 
255 255 255 255 255 255 255 255 255 0 58 122 122 122 122 58 58 0 255 0 58 58 122 122 122 122 58 0 255 255 255 255 255 255 255 255 255 255 
255 255 255 255 255 255 255 255 0 0 58 58 58 58 58 58 0 0 255 0 0 58 58 58 58 58 58 0 0 255 255 255 255 255 255 255 255 255 
255 255 255 255 255 255 255 0 122 0 58 58 58 58 58 58 0 0 255 0 0 58 58 58 58 58 58 0 122 0 255 255 255 255 255 255 255 255 
255 255 255 255 255 255 255 0 122 58 0 0 0 0 0 0 58 0 255 0 58 0 0 0 0 0 0 58 122 0 255 255 255 255 255 255 255 255 
255 255 255 255 255 255 255 0 122 58 58 58 58 58 58 58 58 0 255 0 58 58 58 58 58 58 58 58 122 0 255 255 255 255 255 255 255 255 
255 255 255 255 255 255 255 0 58 58 58 58 58 58 58 58 58 0 255 0 58 58 58 58 58 58 58 58 58 0 255 255 255 255 255 255 255 255 
255 255 255 255 255 255 255 255 0 58 58 58 58 58 58 58 0 255 255 255 0 58 58 58 58 58 58 58 0 255 255 255 255 255 255 255 255 255 
255 255 255 255 255 255 255 255 255 0 0 0 0 0 0 0 255 255 255 255 255 0 0 0 0 0 0 0 255 255 255 255 255 255 255 255 255 255 
255 255 255 255 255 255 255 255 255 255 255 255 255 255 255 255 255 255 255 255 255 255 255 255 255 255 255 255 255 255 255 255 255 255 255 255 255 255 
255 255 255 255 255 255 255 255 255 255 255 255 255 255 255 255 255 255 255 255 255 255 255 255 255 255 255 255 255 255 255 255 255 255 255 255 255 255 
255 255 255 255 255 255 255 255 255 255 255 255 255 255 255 255 255 255 255 255 255 255 255 255 255 255 255 255 255 255 255 255 255 255 255 255 58 58 
255 255 255 255 255 255 255 255 255 255 255 255 255 255 255 255 255 255 255 255 255 255 255 255 255 255 255 255 255 255 255 255 255 255 255 255 58 240 
255 255 255 255 255 255 255 255 255 255 255 255 255 255 255 255 255 255 255 255 255 255 255 255 255 255 255 255 255 255 255 255 255 255 255 255 58 240 
